<?xml version="1.0" encoding="utf-8"?>
<!-- Generator: Adobe Illustrator 25.2.1, SVG Export Plug-In . SVG Version: 6.00 Build 0)  -->
<svg version="1.1" id="icon_x5F_1" xmlns="http://www.w3.org/2000/svg" xmlns:xlink="http://www.w3.org/1999/xlink" x="0px" y="0px"
	 viewBox="0 0 88 88" style="enable-background:new 0 0 88 88;" xml:space="preserve">
<style type="text/css">
	.st0{fill:#7E5526;}
</style>
<g id="icon">
	<rect id="box_x5F_3" x="4.6" y="1" class="st0" width="79.2" height="6.4"/>
	<rect id="box_x5F_2" x="4.6" y="29" class="st0" width="79.2" height="6.4"/>
	<rect id="box_x5F_1" x="4.6" y="57" class="st0" width="79.2" height="6.4"/>
	<g id="menu">
		<path id="m" class="st0" d="M4.2,74.4H7l2.2,6c0.3,0.8,0.5,1.6,0.8,2.5h0.1c0.3-0.8,0.5-1.7,0.8-2.5l2.1-6h2.8v12.8h-2.3v-5.3
			c0-1.2,0.2-3,0.3-4.2h-0.1l-1,3l-2,5.4H9.3l-2-5.4l-1-3H6.2c0.1,1.2,0.3,3,0.3,4.2v5.3H4.2V74.4z"/>
		<path id="e" class="st0" d="M29.3,74.4h7.8v2.1h-5.3v3h4.5v2.1h-4.5v3.4h5.5v2.1h-8V74.4z"/>
		<path id="n" class="st0" d="M50.3,74.4h2.6l3.7,6.8l1.3,2.8H58c-0.1-1.3-0.3-3-0.3-4.5v-5.1H60v12.8h-2.6l-3.7-6.8l-1.3-2.7h-0.1
			c0.1,1.4,0.3,3,0.3,4.5v5.1h-2.4V74.4z"/>
		<path id="u" class="st0" d="M73.5,81.4v-7H76v7.2c0,2.7,0.9,3.6,2.4,3.6c1.5,0,2.5-0.9,2.5-3.6v-7.2h2.5v7c0,4.2-1.8,6-4.9,6
			C75.3,87.4,73.5,85.7,73.5,81.4z"/>
	</g>
</g>
</svg>
