<?xml version="1.0" encoding="utf-8"?>
<!-- Generator: Adobe Illustrator 25.2.1, SVG Export Plug-In . SVG Version: 6.00 Build 0)  -->
<svg version="1.1" id="圖層_1" xmlns="http://www.w3.org/2000/svg" xmlns:xlink="http://www.w3.org/1999/xlink" x="0px" y="0px"
	 viewBox="0 0 40 63" style="enable-background:new 0 0 40 63;" xml:space="preserve">
<style type="text/css">
	.st0{fill:#5E3200;}
	.st1{fill:#FFFFFF;}
</style>
<g>
	<path class="st0" d="M32.3,59.9H7.7c-4.1,0-7.5-3.4-7.5-7.5V18.2c0-4.1,3.4-7.5,7.5-7.5h24.5c4.1,0,7.5,3.4,7.5,7.5v34.2
		C39.8,56.6,36.4,59.9,32.3,59.9z"/>
	<g>
		<path class="st0" d="M9.6,62.5c-3.9,0-7-3.1-7-7V21.3c0-3.9,3.1-7,7-7H30c3.9,0,7,3.1,7,7v34.2c0,3.9-3.1,7-7,7H9.6z"/>
		<path class="st1" d="M30,14.8c3.6,0,6.5,2.9,6.5,6.5v34.2c0,3.6-2.9,6.5-6.5,6.5H9.6c-3.6,0-6.5-2.9-6.5-6.5V21.3
			c0-3.6,2.9-6.5,6.5-6.5H30 M30,13.8H9.6c-4.1,0-7.5,3.4-7.5,7.5v34.2c0,4.1,3.4,7.5,7.5,7.5H30c4.1,0,7.5-3.4,7.5-7.5V21.3
			C37.5,17.2,34.1,13.8,30,13.8L30,13.8z"/>
	</g>
	<path class="st0" d="M26.9,0H13.1C9.4,0,6.3,3,6.3,6.8V14c0,3.7,3,6.8,6.8,6.8h13.9c3.7,0,6.8-3,6.8-6.8V6.8C33.7,3,30.6,0,26.9,0z
		 M31.4,15.1c0,2.9-2.4,5.3-5.3,5.3H13.9c-2.9,0-5.3-2.4-5.3-5.3V7.5c0-2.9,2.4-5.3,5.3-5.3h12.3c2.9,0,5.3,2.4,5.3,5.3V15.1z"/>
	<path class="st1" d="M31.4,13.8v2.1c0,2.9-2.4,5.3-5.3,5.3H13.9c-2.9,0-5.3-2.4-5.3-5.3v-2.1c0,0-1.1,0-1.6,0
		c-0.4,0-0.7,0.1-0.7,0.1v1c0,3.7,3,6.8,6.8,6.8h13.9c3.7,0,6.8-3,6.8-6.8V14c0,0-0.6-0.1-0.9-0.1C32.5,13.8,31.4,13.8,31.4,13.8z"
		/>
</g>
</svg>
